<?xml version="1.0" standalone="no"?>
<!DOCTYPE svg PUBLIC "-//W3C//DTD SVG 20010904//EN"
 "http://www.w3.org/TR/2001/REC-SVG-20010904/DTD/svg10.dtd">
<svg version="1.0" xmlns="http://www.w3.org/2000/svg"
 width="256.000000pt" height="256.000000pt" viewBox="0 0 256.000000 256.000000"
 preserveAspectRatio="xMidYMid meet">
<metadata>
Created by potrace 1.11, written by Peter Selinger 2001-2013
</metadata>
<g transform="translate(0.000000,256.000000) scale(0.100000,-0.100000)"
fill="#000000" stroke="none">
<path d="M527 2402 c-16 -3 -17 -40 -18 -430 0 -585 1 -877 5 -899 2 -10 7
-38 11 -63 55 -355 310 -584 704 -634 118 -15 392 -9 421 9 4 2 22 7 41 10
126 21 298 111 384 200 114 118 185 270 211 450 9 65 12 1345 3 1350 -6 4
-200 7 -364 6 l-61 -1 0 -627 c-1 -467 -4 -643 -14 -688 -48 -226 -216 -348
-470 -340 -228 7 -377 124 -424 334 -12 52 -15 180 -16 689 0 344 -2 627 -4
629 -5 5 -387 9 -409 5z"/>
</g>
</svg>
